<svg xmlns="http://www.w3.org/2000/svg" width="31" height="28" viewBox="0 0 31 28">
    <g fill="none" fill-rule="evenodd">
        <g fill="#00493D" fill-rule="nonzero" stroke="#00493D" stroke-width=".25">
            <g>
                <path d="M12.747 21.026c.887 0 1.693.36 2.278.938.585.58.948 1.379.948 2.257 0 .878-.363 1.677-.948 2.257-.585.579-1.391.938-2.278.938-.886 0-1.692-.36-2.277-.938-.585-.58-.948-1.379-.948-2.257 0-.878.363-1.677.948-2.257.585-.579 1.391-.938 2.277-.938zm0 1.614c-.445 0-.844.175-1.133.46-.288.286-.464.68-.464 1.12 0 .441.176.836.464 1.121.289.286.688.46 1.133.46.446 0 .845-.174 1.134-.46.288-.285.464-.68.464-1.12 0-.44-.176-.835-.464-1.12-.289-.286-.688-.46-1.134-.46zm10.336-1.614c.887 0 1.693.36 2.278.938.585.58.948 1.379.948 2.257 0 .878-.363 1.677-.948 2.257-.585.579-1.391.938-2.278.938-.886 0-1.692-.36-2.277-.938-.585-.58-.949-1.379-.949-2.257 0-.878.364-1.677.949-2.257.585-.579 1.39-.938 2.277-.938zm0 1.614c-.445 0-.845.175-1.133.46-.288.286-.464.68-.464 1.12 0 .441.176.836.464 1.121.288.286.688.46 1.133.46.445 0 .845-.174 1.133-.46.288-.285.465-.68.465-1.12 0-.44-.177-.835-.465-1.12-.288-.286-.688-.46-1.133-.46zM5.6-.125L6.89 3.286h23.428c.242.002.467.128.618.316.13.16.201.365.186.568l-.016.102-2.433 10.327-19.24.532.53 2.483h16.563c.215-.003.422.09.575.24.153.15.25.354.25.568 0 .213-.097.417-.25.567-.128.125-.293.21-.468.233l-.106.007H9.308c-.232.011-.457-.092-.618-.258-.13-.135-.217-.31-.234-.494l-.001-.111L4.85 1.49H.69c-.225 0-.428-.09-.575-.236-.148-.147-.239-.349-.239-.572 0-.223.091-.425.239-.571.123-.121.284-.204.465-.229l.11-.007H5.6zm23.7 5.026H7.249l1.842 8.62H27.26l2.04-8.62z" transform="translate(-1359.000000, -14.000000) translate(1359.000000, 14.620253)"/>
            </g>
        </g>
    </g>
</svg>
