<?xml version="1.0" encoding="UTF-8"?>
<svg xmlns="http://www.w3.org/2000/svg" xmlns:xlink="http://www.w3.org/1999/xlink" width="30pt" height="30pt" viewBox="0 0 30 30" version="1.1">
<g id="surface1">
<path style=" stroke:none;fill-rule:nonzero;fill:rgb(100%,100%,100%);fill-opacity:1;" d="M 0.0703125 0.109375 L 29.980469 0.109375 L 29.980469 29.886719 L 0.0703125 29.886719 Z M 0.0703125 0.109375 "/>
<path style=" stroke:none;fill-rule:nonzero;fill:rgb(97.647059%,38.823529%,0.784314%);fill-opacity:1;" d="M 0.0703125 0.109375 L 18.835938 0.109375 C 20.347656 0.109375 21.859375 0.105469 23.367188 0.113281 C 22.949219 0.535156 22.519531 0.953125 22.101562 1.375 C 22.265625 1.550781 22.441406 1.714844 22.609375 1.886719 C 22.992188 1.625 23.425781 1.414062 23.894531 1.378906 C 24.320312 1.335938 24.746094 1.445312 25.136719 1.613281 C 25.285156 1.675781 25.421875 1.777344 25.589844 1.792969 C 25.753906 1.78125 25.875 1.640625 25.929688 1.496094 C 25.980469 1.394531 25.933594 1.277344 25.855469 1.203125 C 25.492188 0.839844 25.125 0.480469 24.761719 0.113281 C 26.503906 0.101562 28.242188 0.113281 29.980469 0.109375 C 29.980469 1.796875 29.984375 3.488281 29.980469 5.183594 C 29.621094 4.832031 29.273438 4.476562 28.917969 4.125 C 28.824219 4.027344 28.671875 3.976562 28.542969 4.039062 C 28.457031 4.078125 28.375 4.144531 28.335938 4.234375 C 28.289062 4.414062 28.371094 4.59375 28.445312 4.757812 C 28.664062 5.21875 28.761719 5.742188 28.695312 6.25 C 28.652344 6.597656 28.527344 6.9375 28.335938 7.234375 C 28.289062 7.308594 28.238281 7.382812 28.195312 7.457031 C 28.378906 7.613281 28.53125 7.800781 28.71875 7.957031 C 29.132812 7.53125 29.558594 7.113281 29.980469 6.691406 C 29.980469 9.515625 29.984375 12.339844 29.980469 15.164062 C 29.898438 15.191406 29.808594 15.246094 29.722656 15.207031 C 29.609375 15.136719 29.523438 15.027344 29.429688 14.9375 C 28.414062 13.929688 27.40625 12.914062 26.382812 11.910156 C 25.980469 12.316406 25.578125 12.722656 25.167969 13.113281 C 25.386719 13.359375 25.628906 13.574219 25.851562 13.808594 C 26.667969 14.621094 27.484375 15.433594 28.304688 16.25 C 28.375 16.320312 28.457031 16.382812 28.496094 16.476562 C 28.507812 16.578125 28.433594 16.667969 28.40625 16.761719 C 28.367188 16.871094 28.453125 17 28.570312 17.003906 C 28.671875 17.023438 28.761719 16.953125 28.828125 16.886719 C 29.210938 16.5 29.597656 16.121094 29.980469 15.738281 L 29.980469 29.886719 L 15.765625 29.886719 C 16.128906 29.527344 16.492188 29.164062 16.859375 28.804688 C 15.617188 27.570312 14.378906 26.339844 13.140625 25.105469 C 12.738281 25.492188 12.347656 25.894531 11.945312 26.285156 C 11.859375 26.375 11.765625 26.457031 11.726562 26.578125 C 11.707031 26.691406 11.8125 26.800781 11.925781 26.808594 C 12.027344 26.796875 12.113281 26.730469 12.210938 26.707031 C 12.300781 26.703125 12.371094 26.769531 12.433594 26.828125 C 13.167969 27.566406 13.90625 28.296875 14.644531 29.03125 C 14.828125 29.226562 15.03125 29.402344 15.203125 29.601562 C 15.28125 29.6875 15.226562 29.800781 15.183594 29.886719 L 6.683594 29.886719 L 8.6875 27.890625 C 8.8125 27.769531 8.941406 27.632812 8.960938 27.453125 C 8.988281 27.242188 8.777344 27.035156 8.566406 27.078125 C 8.390625 27.113281 8.246094 27.25 8.0625 27.25 C 7.949219 27.238281 7.859375 27.15625 7.78125 27.082031 C 6.183594 25.492188 4.585938 23.898438 2.992188 22.3125 C 2.882812 22.207031 2.753906 22.101562 2.71875 21.949219 C 2.710938 21.765625 2.839844 21.621094 2.886719 21.453125 C 2.949219 21.246094 2.75 21.015625 2.535156 21.03125 C 2.386719 21.042969 2.257812 21.125 2.15625 21.230469 C 1.464844 21.925781 0.761719 22.613281 0.0703125 23.3125 C 0.0664062 15.578125 0.0703125 7.84375 0.0703125 0.109375 "/>
<path style=" stroke:none;fill-rule:nonzero;fill:rgb(100%,100%,100%);fill-opacity:1;" d="M 21.644531 1.828125 C 21.671875 1.796875 21.722656 1.765625 21.75 1.8125 C 23.941406 3.992188 26.128906 6.167969 28.316406 8.347656 C 27.546875 9.113281 26.78125 9.878906 26.011719 10.644531 C 25.914062 10.738281 25.789062 10.816406 25.652344 10.824219 C 25.460938 10.839844 25.269531 10.667969 25.285156 10.476562 C 25.289062 10.285156 25.453125 10.136719 25.457031 9.945312 C 25.464844 9.820312 25.371094 9.730469 25.289062 9.648438 C 23.667969 8.035156 22.046875 6.417969 20.421875 4.800781 C 20.332031 4.710938 20.230469 4.601562 20.09375 4.613281 C 19.890625 4.617188 19.734375 4.804688 19.527344 4.78125 C 19.40625 4.785156 19.3125 4.691406 19.25 4.59375 C 19.167969 4.425781 19.246094 4.222656 19.367188 4.097656 C 20.128906 3.339844 20.886719 2.582031 21.644531 1.828125 M 24.796875 2.460938 C 24.859375 2.34375 24.980469 2.238281 25.121094 2.257812 C 25.277344 2.269531 25.390625 2.398438 25.496094 2.5 C 26.121094 3.128906 26.75 3.753906 27.378906 4.382812 C 27.5 4.496094 27.640625 4.609375 27.667969 4.78125 C 27.683594 4.960938 27.519531 5.117188 27.347656 5.136719 C 27.203125 5.140625 27.070312 5.0625 26.945312 4.992188 C 26.679688 4.835938 26.378906 4.710938 26.058594 4.726562 C 25.898438 4.726562 25.738281 4.789062 25.59375 4.855469 C 25.417969 4.671875 25.222656 4.507812 25.058594 4.316406 C 25.109375 4.175781 25.175781 4.039062 25.183594 3.890625 C 25.207031 3.550781 25.066406 3.222656 24.894531 2.941406 C 24.808594 2.800781 24.738281 2.625 24.796875 2.460938 M 10.957031 4.117188 C 11.296875 3.761719 11.652344 3.425781 11.992188 3.074219 C 12.316406 3.386719 12.628906 3.703125 12.949219 4.019531 C 13.050781 4.117188 12.957031 4.289062 12.839844 4.328125 C 12.742188 4.339844 12.660156 4.273438 12.570312 4.242188 C 12.230469 4.078125 11.8125 4.058594 11.472656 4.242188 C 11.382812 4.277344 11.3125 4.351562 11.21875 4.367188 C 11.121094 4.292969 11.042969 4.199219 10.957031 4.117188 M 10.742188 4.320312 C 11.203125 4.761719 11.652344 5.222656 12.105469 5.667969 C 12.820312 6.375 13.527344 7.089844 14.246094 7.796875 C 13.835938 8.207031 13.425781 8.617188 13.011719 9.023438 C 12.929688 9.117188 12.757812 9.15625 12.675781 9.039062 C 12.578125 8.933594 12.6875 8.804688 12.71875 8.691406 C 12.757812 8.613281 12.691406 8.539062 12.636719 8.484375 C 11.8125 7.667969 10.992188 6.851562 10.175781 6.03125 C 10.097656 5.964844 10.035156 5.878906 9.945312 5.832031 C 9.820312 5.804688 9.722656 5.917969 9.597656 5.921875 C 9.503906 5.914062 9.417969 5.820312 9.429688 5.722656 C 9.4375 5.648438 9.480469 5.582031 9.535156 5.527344 C 9.9375 5.125 10.34375 4.726562 10.742188 4.320312 M 12.382812 4.820312 C 12.339844 4.714844 12.414062 4.589844 12.523438 4.574219 C 12.605469 4.5625 12.671875 4.625 12.726562 4.679688 C 13.066406 5.015625 13.40625 5.355469 13.75 5.691406 C 13.808594 5.757812 13.894531 5.816406 13.898438 5.914062 C 13.910156 6.011719 13.816406 6.105469 13.71875 6.09375 C 13.585938 6.09375 13.484375 5.992188 13.367188 5.949219 C 13.1875 5.867188 12.976562 5.859375 12.804688 5.953125 C 12.710938 5.863281 12.621094 5.769531 12.527344 5.683594 C 12.566406 5.546875 12.605469 5.402344 12.570312 5.257812 C 12.546875 5.09375 12.433594 4.96875 12.382812 4.820312 M 18.398438 5.0625 C 18.480469 4.976562 18.589844 4.914062 18.707031 4.898438 C 18.917969 4.867188 19.136719 5.070312 19.097656 5.285156 C 19.070312 5.472656 18.910156 5.621094 18.925781 5.820312 C 18.957031 5.957031 19.070312 6.050781 19.160156 6.148438 C 20.765625 7.742188 22.371094 9.335938 23.96875 10.933594 C 24.054688 11.011719 24.144531 11.113281 24.269531 11.113281 C 24.457031 11.113281 24.601562 10.972656 24.78125 10.941406 C 24.988281 10.90625 25.195312 11.109375 25.167969 11.316406 C 25.15625 11.457031 25.070312 11.578125 24.972656 11.675781 C 24.167969 12.476562 23.363281 13.285156 22.554688 14.085938 C 22.453125 14.1875 22.320312 14.28125 22.164062 14.28125 C 21.996094 14.289062 21.832031 14.148438 21.8125 13.980469 C 21.789062 13.761719 21.992188 13.597656 21.988281 13.378906 C 21.976562 13.277344 21.90625 13.191406 21.835938 13.117188 C 20.425781 11.71875 19.019531 10.3125 17.609375 8.914062 C 18.773438 11.066406 19.949219 13.214844 21.113281 15.371094 C 21.132812 15.402344 21.148438 15.433594 21.164062 15.472656 C 21.078125 15.550781 20.996094 15.636719 20.914062 15.71875 C 18.582031 14.574219 16.25 13.417969 13.921875 12.269531 C 13.554688 12.089844 13.1875 11.875 12.773438 11.828125 C 12.636719 11.808594 12.542969 11.921875 12.441406 11.992188 C 12.339844 12.074219 12.199219 12.125 12.070312 12.082031 C 11.917969 12.015625 11.8125 11.832031 11.859375 11.667969 C 11.890625 11.554688 11.96875 11.460938 12.050781 11.378906 C 12.804688 10.632812 13.554688 9.882812 14.308594 9.136719 C 15.480469 9.710938 16.660156 10.269531 17.835938 10.839844 C 17.875 10.871094 17.917969 10.898438 17.949219 10.933594 C 17.96875 10.914062 17.984375 10.890625 18.003906 10.871094 L 17.960938 10.875 C 17.339844 9.703125 16.691406 8.546875 16.074219 7.375 C 16.851562 6.605469 17.621094 5.832031 18.398438 5.0625 M 14.273438 5.589844 C 14.328125 5.488281 14.488281 5.476562 14.566406 5.5625 C 14.882812 5.882812 15.207031 6.199219 15.527344 6.519531 C 15.167969 6.878906 14.808594 7.238281 14.445312 7.59375 C 14.363281 7.5 14.253906 7.421875 14.191406 7.3125 C 14.296875 7.140625 14.40625 6.960938 14.433594 6.753906 C 14.488281 6.46875 14.441406 6.167969 14.316406 5.90625 C 14.28125 5.808594 14.207031 5.691406 14.273438 5.589844 M 9 6.058594 C 9.0625 5.996094 9.132812 5.925781 9.222656 5.902344 C 9.3125 5.886719 9.425781 5.941406 9.4375 6.042969 C 9.460938 6.152344 9.378906 6.242188 9.359375 6.347656 C 9.34375 6.433594 9.414062 6.492188 9.464844 6.546875 C 10.304688 7.382812 11.136719 8.21875 11.976562 9.050781 C 12.035156 9.101562 12.09375 9.167969 12.175781 9.1875 C 12.277344 9.179688 12.359375 9.113281 12.457031 9.089844 C 12.578125 9.078125 12.6875 9.207031 12.648438 9.320312 C 12.632812 9.402344 12.566406 9.464844 12.511719 9.523438 C 12.101562 9.933594 11.695312 10.339844 11.285156 10.742188 C 11.214844 10.8125 11.121094 10.886719 11.011719 10.863281 C 10.953125 10.839844 10.902344 10.792969 10.882812 10.730469 C 10.847656 10.59375 10.996094 10.480469 10.960938 10.34375 C 10.929688 10.292969 10.886719 10.25 10.847656 10.207031 C 10.464844 9.828125 10.082031 9.445312 9.695312 9.066406 C 9.5625 9.203125 9.425781 9.339844 9.289062 9.472656 C 9.195312 9.382812 9.101562 9.289062 9.011719 9.195312 C 9.148438 9.058594 9.285156 8.921875 9.421875 8.785156 C 9.085938 8.457031 8.75 8.117188 8.414062 7.785156 C 8.339844 7.714844 8.277344 7.640625 8.191406 7.589844 C 8.039062 7.539062 7.890625 7.753906 7.742188 7.636719 C 7.625 7.550781 7.660156 7.382812 7.757812 7.296875 C 8.171875 6.878906 8.589844 6.472656 9 6.058594 "/>
<path style=" stroke:none;fill-rule:nonzero;fill:rgb(100%,100%,100%);fill-opacity:1;" d="M 7.390625 7.683594 C 7.484375 7.625 7.628906 7.660156 7.671875 7.769531 C 7.714844 7.894531 7.597656 8.003906 7.59375 8.128906 C 7.59375 8.195312 7.644531 8.242188 7.6875 8.285156 C 8.558594 9.152344 9.421875 10.019531 10.292969 10.882812 C 10.449219 11.050781 10.652344 10.761719 10.820312 10.886719 C 10.929688 10.972656 10.894531 11.144531 10.800781 11.226562 C 10.390625 11.636719 9.980469 12.039062 9.574219 12.449219 C 9.507812 12.511719 9.441406 12.585938 9.351562 12.613281 C 9.25 12.644531 9.128906 12.582031 9.117188 12.472656 C 9.097656 12.347656 9.210938 12.25 9.203125 12.128906 C 9.1875 12.078125 9.152344 12.03125 9.117188 11.992188 C 8.292969 11.175781 7.46875 10.359375 6.648438 9.539062 C 6.570312 9.464844 6.507812 9.375 6.402344 9.335938 C 6.289062 9.332031 6.195312 9.414062 6.085938 9.429688 C 5.992188 9.429688 5.910156 9.347656 5.90625 9.257812 C 5.898438 9.160156 5.964844 9.082031 6.03125 9.015625 C 6.441406 8.609375 6.847656 8.203125 7.253906 7.796875 C 7.296875 7.753906 7.339844 7.714844 7.390625 7.683594 M 5.121094 9.917969 C 5.308594 9.738281 5.492188 9.550781 5.679688 9.367188 C 6.007812 9.683594 6.332031 10.015625 6.664062 10.339844 C 6.71875 10.402344 6.789062 10.457031 6.820312 10.539062 C 6.859375 10.691406 6.683594 10.859375 6.527344 10.792969 C 6.375 10.722656 6.25 10.601562 6.105469 10.519531 C 5.855469 10.367188 5.566406 10.269531 5.273438 10.304688 C 5.1875 10.214844 5.09375 10.136719 5.015625 10.042969 C 5.042969 9.992188 5.082031 9.957031 5.121094 9.917969 M 3.75 11.28125 C 4.101562 10.9375 4.449219 10.589844 4.796875 10.246094 C 5.457031 10.90625 6.117188 11.5625 6.78125 12.21875 C 7.144531 12.582031 7.5 12.945312 7.867188 13.300781 C 7.972656 13.414062 8.109375 13.316406 8.222656 13.277344 C 8.335938 13.226562 8.46875 13.328125 8.464844 13.445312 C 8.464844 13.527344 8.417969 13.597656 8.367188 13.652344 C 7.9375 14.074219 7.515625 14.496094 7.09375 14.917969 C 7.035156 14.980469 6.957031 15.039062 6.871094 15.03125 C 6.773438 15.042969 6.679688 14.949219 6.6875 14.855469 C 6.695312 14.753906 6.773438 14.671875 6.773438 14.570312 C 6.777344 14.488281 6.707031 14.433594 6.65625 14.378906 C 5.65625 13.386719 4.664062 12.386719 3.65625 11.398438 C 3.6875 11.359375 3.71875 11.320312 3.75 11.28125 M 27.324219 10.976562 C 27.710938 11.359375 28.097656 11.742188 28.480469 12.128906 C 28.605469 12.246094 28.515625 12.476562 28.351562 12.503906 C 28.203125 12.523438 28.085938 12.40625 27.96875 12.328125 C 27.660156 12.113281 27.292969 11.914062 26.902344 11.980469 C 26.796875 11.886719 26.699219 11.789062 26.613281 11.679688 C 26.855469 11.449219 27.085938 11.210938 27.324219 10.976562 M 3.429688 11.609375 C 3.546875 11.65625 3.621094 11.785156 3.714844 11.867188 C 3.664062 12.230469 3.835938 12.570312 4.039062 12.855469 C 4.101562 12.945312 4.171875 13.03125 4.210938 13.132812 C 4.25 13.269531 4.117188 13.414062 3.976562 13.398438 C 3.898438 13.398438 3.84375 13.332031 3.796875 13.285156 C 3.453125 12.941406 3.109375 12.605469 2.765625 12.261719 C 2.992188 12.046875 3.203125 11.820312 3.429688 11.609375 M 10.417969 13.375 C 11.042969 13.175781 11.722656 13.152344 12.367188 13.285156 C 13.460938 13.515625 14.425781 14.152344 15.199219 14.945312 C 15.957031 15.707031 16.558594 16.664062 16.761719 17.730469 C 16.875 18.316406 16.851562 18.929688 16.683594 19.5 C 16.515625 20.066406 16.214844 20.589844 15.832031 21.039062 C 15.671875 20.867188 15.492188 20.707031 15.335938 20.53125 C 15.335938 20.449219 15.386719 20.375 15.402344 20.292969 C 15.488281 20.019531 15.402344 19.710938 15.191406 19.507812 C 13.640625 17.960938 12.082031 16.414062 10.53125 14.867188 C 10.390625 14.722656 10.210938 14.605469 10.007812 14.589844 C 9.839844 14.570312 9.679688 14.628906 9.519531 14.683594 C 9.457031 14.71875 9.417969 14.640625 9.375 14.609375 C 9.25 14.476562 9.113281 14.351562 8.988281 14.214844 C 8.988281 14.207031 8.984375 14.1875 8.984375 14.179688 C 9.402344 13.820312 9.890625 13.542969 10.417969 13.375 M 14.652344 13.203125 C 14.796875 13.25 14.929688 13.320312 15.066406 13.390625 C 15.570312 13.632812 16.074219 13.886719 16.582031 14.132812 C 16.625 14.15625 16.667969 14.191406 16.703125 14.226562 C 17.132812 14.65625 17.5625 15.082031 17.992188 15.511719 C 18.226562 15.757812 18.515625 15.949219 18.832031 16.066406 C 19.054688 16.152344 19.308594 16.152344 19.53125 16.074219 C 19.644531 16.035156 19.765625 15.992188 19.886719 16.03125 C 20.007812 16.078125 20.089844 16.191406 20.101562 16.324219 C 20.09375 16.496094 19.984375 16.640625 19.867188 16.757812 C 19.484375 17.144531 19.09375 17.53125 18.703125 17.910156 C 18.601562 18.003906 18.480469 18.101562 18.335938 18.117188 C 18.128906 18.148438 17.925781 17.929688 17.988281 17.730469 C 18.046875 17.527344 18.128906 17.320312 18.09375 17.109375 C 18.046875 16.75 17.839844 16.4375 17.613281 16.164062 C 16.761719 15.3125 15.910156 14.464844 15.054688 13.613281 C 14.921875 13.472656 14.777344 13.347656 14.652344 13.203125 M 24.230469 14.054688 C 24.46875 13.820312 24.707031 13.582031 24.941406 13.347656 C 25.046875 13.429688 25.136719 13.53125 25.234375 13.625 C 25.195312 13.9375 25.300781 14.246094 25.464844 14.507812 C 25.546875 14.660156 25.671875 14.789062 25.746094 14.945312 C 25.789062 15.019531 25.757812 15.105469 25.730469 15.179688 C 26.128906 15.445312 26.472656 15.78125 26.75 16.167969 C 27.070312 16.613281 27.292969 17.144531 27.277344 17.703125 C 27.28125 18.230469 27.054688 18.738281 26.714844 19.136719 C 26.625 19.042969 26.519531 18.960938 26.441406 18.851562 C 26.457031 18.738281 26.511719 18.625 26.484375 18.507812 C 26.453125 18.359375 26.335938 18.253906 26.234375 18.148438 C 25.402344 17.328125 24.578125 16.503906 23.75 15.683594 C 23.671875 15.601562 23.574219 15.527344 23.457031 15.515625 C 23.347656 15.503906 23.238281 15.535156 23.136719 15.570312 C 23.039062 15.480469 22.941406 15.382812 22.847656 15.289062 C 23.265625 14.933594 23.808594 14.703125 24.363281 14.730469 C 24.578125 14.726562 24.785156 14.777344 24.992188 14.820312 C 24.742188 14.5625 24.472656 14.320312 24.230469 14.054688 M 7.796875 15.886719 C 7.96875 15.410156 8.242188 14.972656 8.566406 14.582031 C 8.726562 14.746094 8.894531 14.902344 9.054688 15.066406 C 9.085938 15.167969 9.003906 15.261719 8.988281 15.359375 C 8.90625 15.628906 9.011719 15.921875 9.210938 16.117188 C 10.738281 17.640625 12.265625 19.160156 13.796875 20.683594 C 13.941406 20.84375 14.121094 20.992188 14.347656 21.027344 C 14.550781 21.058594 14.746094 20.988281 14.933594 20.921875 C 15.101562 21.089844 15.273438 21.253906 15.441406 21.421875 C 15.070312 21.746094 14.640625 22 14.183594 22.175781 C 13.492188 22.441406 12.71875 22.488281 11.992188 22.328125 C 10.890625 22.085938 9.917969 21.425781 9.144531 20.621094 C 8.429688 19.875 7.851562 18.960938 7.644531 17.9375 C 7.507812 17.257812 7.550781 16.539062 7.796875 15.886719 M 22.070312 16.792969 C 22.109375 16.316406 22.320312 15.863281 22.632812 15.507812 C 22.726562 15.601562 22.824219 15.695312 22.917969 15.789062 C 22.882812 15.902344 22.828125 16.019531 22.859375 16.140625 C 22.878906 16.246094 22.949219 16.328125 23.027344 16.40625 C 23.855469 17.226562 24.679688 18.050781 25.507812 18.875 C 25.605469 18.96875 25.699219 19.082031 25.835938 19.117188 C 25.964844 19.152344 26.09375 19.109375 26.214844 19.070312 C 26.308594 19.164062 26.40625 19.257812 26.496094 19.359375 C 26.101562 19.683594 25.609375 19.914062 25.085938 19.914062 C 24.582031 19.933594 24.085938 19.757812 23.664062 19.492188 C 23.359375 19.300781 23.078125 19.066406 22.847656 18.792969 C 22.957031 19.160156 22.933594 19.570312 22.757812 19.914062 C 22.589844 20.25 22.324219 20.527344 22.066406 20.792969 C 21.972656 20.699219 21.875 20.601562 21.777344 20.507812 C 21.859375 20.375 21.910156 20.21875 21.859375 20.066406 C 21.800781 19.910156 21.671875 19.796875 21.558594 19.679688 C 21.324219 19.441406 21.089844 19.207031 20.855469 18.976562 C 20.71875 18.847656 20.570312 18.699219 20.371094 18.6875 C 20.257812 18.675781 20.152344 18.734375 20.054688 18.789062 C 19.957031 18.695312 19.863281 18.601562 19.765625 18.507812 C 20.144531 18.128906 20.574219 17.738281 21.125 17.667969 C 21.578125 17.59375 22.035156 17.785156 22.355469 18.097656 C 22.152344 17.695312 22.027344 17.246094 22.070312 16.792969 M 5.515625 17.882812 C 5.609375 17.792969 5.734375 17.722656 5.863281 17.714844 C 6.082031 17.703125 6.28125 17.925781 6.21875 18.136719 C 6.171875 18.296875 6.058594 18.4375 6.050781 18.609375 C 6.0625 18.757812 6.1875 18.867188 6.289062 18.964844 L 11.125 23.78125 C 11.203125 23.851562 11.285156 23.925781 11.394531 23.933594 C 11.574219 23.933594 11.714844 23.800781 11.890625 23.757812 C 12.097656 23.71875 12.304688 23.90625 12.292969 24.113281 C 12.289062 24.253906 12.210938 24.382812 12.113281 24.480469 L 9.679688 26.90625 C 9.570312 27.007812 9.4375 27.097656 9.285156 27.097656 C 9.097656 27.105469 8.921875 26.925781 8.9375 26.734375 C 8.957031 26.546875 9.113281 26.398438 9.117188 26.203125 C 9.109375 26.089844 9.019531 26 8.945312 25.921875 C 8.222656 25.199219 7.5 24.480469 6.777344 23.761719 C 6.75 23.742188 6.714844 23.679688 6.671875 23.722656 C 6.421875 23.960938 6.179688 24.214844 5.929688 24.457031 C 5.757812 24.289062 5.589844 24.117188 5.417969 23.945312 C 5.664062 23.695312 5.910156 23.445312 6.167969 23.203125 C 6.167969 23.191406 6.167969 23.160156 6.167969 23.148438 C 5.488281 22.484375 4.820312 21.808594 4.140625 21.136719 C 4.039062 21.039062 3.941406 20.917969 3.796875 20.882812 C 3.597656 20.871094 3.445312 21.023438 3.257812 21.058594 C 3.019531 21.097656 2.804688 20.828125 2.882812 20.605469 C 2.925781 20.449219 3.050781 20.339844 3.160156 20.230469 C 3.945312 19.445312 4.734375 18.667969 5.515625 17.882812 M 19.539062 18.726562 C 19.917969 19.078125 20.273438 19.453125 20.640625 19.8125 C 21.347656 20.515625 22.054688 21.21875 22.757812 21.921875 C 22.808594 21.964844 22.855469 22.019531 22.921875 22.03125 C 23.058594 22.046875 23.164062 21.914062 23.300781 21.9375 C 23.382812 21.96875 23.457031 22.046875 23.449219 22.136719 C 23.449219 22.257812 23.34375 22.34375 23.269531 22.425781 C 22.824219 22.859375 22.390625 23.300781 21.945312 23.734375 C 21.847656 23.839844 21.667969 23.789062 21.605469 23.667969 C 21.519531 23.523438 21.757812 23.367188 21.632812 23.230469 C 20.71875 22.328125 19.8125 21.421875 18.902344 20.511719 C 18.835938 20.453125 18.78125 20.378906 18.703125 20.339844 C 18.566406 20.300781 18.460938 20.414062 18.335938 20.429688 C 18.238281 20.417969 18.140625 20.335938 18.148438 20.234375 C 18.140625 20.125 18.222656 20.042969 18.289062 19.96875 C 18.707031 19.554688 19.125 19.140625 19.539062 18.726562 M 16.738281 21.515625 C 17.113281 21.148438 17.476562 20.769531 17.855469 20.410156 C 18.191406 20.746094 18.53125 21.082031 18.867188 21.421875 C 18.980469 21.53125 18.863281 21.695312 18.746094 21.746094 C 18.664062 21.753906 18.589844 21.703125 18.515625 21.671875 C 18.226562 21.53125 17.894531 21.464844 17.578125 21.546875 C 17.375 21.585938 17.199219 21.699219 17.023438 21.800781 C 16.929688 21.703125 16.835938 21.609375 16.738281 21.515625 M 15.210938 23.035156 C 15.644531 22.597656 16.085938 22.171875 16.519531 21.734375 C 17.222656 22.425781 17.917969 23.128906 18.621094 23.820312 C 19.164062 24.355469 19.695312 24.898438 20.242188 25.429688 C 19.820312 25.859375 19.386719 26.28125 18.964844 26.707031 C 18.90625 26.773438 18.820312 26.8125 18.742188 26.84375 C 18.664062 26.816406 18.566406 26.789062 18.542969 26.703125 C 18.496094 26.554688 18.648438 26.4375 18.628906 26.296875 C 18.566406 26.171875 18.457031 26.085938 18.363281 25.988281 L 16.074219 23.710938 C 15.9375 23.585938 15.824219 23.433594 15.664062 23.339844 C 15.503906 23.308594 15.359375 23.511719 15.207031 23.402344 C 15.074219 23.320312 15.113281 23.128906 15.210938 23.035156 M 18.257812 22.261719 C 18.207031 22.132812 18.328125 21.984375 18.460938 22.003906 C 18.527344 22.019531 18.574219 22.0625 18.617188 22.105469 C 18.945312 22.4375 19.28125 22.761719 19.605469 23.09375 C 19.710938 23.203125 19.851562 23.296875 19.894531 23.453125 C 19.855469 23.523438 19.808594 23.617188 19.714844 23.625 C 19.5625 23.640625 19.449219 23.519531 19.3125 23.46875 C 19.121094 23.375 18.894531 23.375 18.703125 23.472656 C 18.605469 23.371094 18.507812 23.269531 18.40625 23.175781 C 18.476562 23.027344 18.507812 22.859375 18.457031 22.703125 C 18.417969 22.542969 18.3125 22.410156 18.257812 22.261719 M 20.277344 23.078125 C 20.34375 22.976562 20.503906 22.960938 20.582031 23.054688 C 20.921875 23.398438 21.269531 23.734375 21.605469 24.078125 C 21.21875 24.453125 20.847656 24.847656 20.449219 25.214844 C 20.359375 25.117188 20.261719 25.023438 20.167969 24.925781 C 20.503906 24.511719 20.550781 23.914062 20.324219 23.441406 C 20.285156 23.328125 20.195312 23.191406 20.277344 23.078125 "/>
<path style=" stroke:none;fill-rule:nonzero;fill:rgb(97.647059%,38.823529%,0.784314%);fill-opacity:1;" d="M 0.0703125 24.320312 C 0.195312 24.273438 0.316406 24.195312 0.453125 24.195312 C 0.621094 24.226562 0.722656 24.375 0.839844 24.484375 C 2.417969 26.050781 3.992188 27.621094 5.570312 29.1875 C 5.65625 29.285156 5.769531 29.382812 5.785156 29.519531 C 5.78125 29.652344 5.707031 29.773438 5.652344 29.890625 C 3.789062 29.886719 1.929688 29.886719 0.0703125 29.886719 C 0.0703125 28.035156 0.0664062 26.175781 0.0703125 24.320312 "/>
<path style=" stroke:none;fill-rule:nonzero;fill:rgb(100%,100%,100%);fill-opacity:1;" d="M 14.691406 24.238281 C 15.25 24.191406 15.804688 24.390625 16.265625 24.695312 C 16.628906 24.933594 16.964844 25.214844 17.222656 25.558594 C 17.53125 25.96875 17.71875 26.46875 17.722656 26.988281 C 17.730469 27.574219 17.5 28.167969 17.078125 28.585938 C 16.980469 28.492188 16.886719 28.394531 16.792969 28.300781 C 16.847656 28.195312 16.914062 28.082031 16.894531 27.957031 C 16.863281 27.769531 16.734375 27.613281 16.605469 27.488281 L 14.488281 25.375 C 14.34375 25.234375 14.179688 25.082031 13.964844 25.066406 C 13.847656 25.054688 13.746094 25.113281 13.648438 25.167969 C 13.558594 25.070312 13.429688 24.996094 13.375 24.871094 C 13.71875 24.515625 14.191406 24.269531 14.691406 24.238281 Z M 14.691406 24.238281 "/>
</g>
</svg>
