<?xml version="1.0" encoding="UTF-8"?>
<svg xmlns="http://www.w3.org/2000/svg" xmlns:xlink="http://www.w3.org/1999/xlink" width="48pt" height="23pt" viewBox="0 0 48 23" version="1.1">
<g id="surface1">
<path style=" stroke:none;fill-rule:nonzero;fill:rgb(0%,28.627451%,56.470588%);fill-opacity:1;" d="M 23.984375 0.535156 L 11.867188 5.8125 L 4.3125 5.8125 L 4.3125 7.96875 L 0.527344 7.96875 L 0.527344 22.449219 L 47.4375 22.449219 L 47.4375 7.96875 L 43.652344 7.96875 L 43.652344 5.8125 L 36.101562 5.8125 Z M 23.984375 0.535156 "/>
<path style=" stroke:none;fill-rule:nonzero;fill:rgb(100%,100%,100%);fill-opacity:1;" d="M 35.171875 9.667969 L 35.171875 12.007812 L 36.660156 12.011719 L 36.972656 9.667969 Z M 35.171875 9.667969 "/>
<path style=" stroke:none;fill-rule:nonzero;fill:rgb(100%,100%,100%);fill-opacity:1;" d="M 43.21875 11.695312 C 43.316406 11.695312 43.402344 11.6875 43.402344 11.566406 C 43.402344 11.472656 43.316406 11.457031 43.238281 11.457031 L 43.082031 11.457031 L 43.082031 11.695312 Z M 43.082031 12.121094 L 42.96875 12.121094 L 42.96875 11.359375 L 43.253906 11.359375 C 43.433594 11.359375 43.519531 11.425781 43.519531 11.578125 C 43.519531 11.714844 43.433594 11.773438 43.328125 11.789062 L 43.539062 12.121094 L 43.414062 12.121094 L 43.214844 11.792969 L 43.082031 11.792969 Z M 43.21875 12.296875 C 43.515625 12.296875 43.75 12.0625 43.75 11.742188 C 43.75 11.425781 43.515625 11.1875 43.21875 11.1875 C 42.921875 11.1875 42.6875 11.425781 42.6875 11.742188 C 42.6875 12.0625 42.921875 12.296875 43.21875 12.296875 M 42.558594 11.742188 C 42.558594 11.359375 42.863281 11.078125 43.21875 11.078125 C 43.574219 11.078125 43.882812 11.359375 43.882812 11.742188 C 43.882812 12.121094 43.574219 12.40625 43.21875 12.40625 C 42.863281 12.40625 42.558594 12.121094 42.558594 11.742188 "/>
<path style=" stroke:none;fill-rule:nonzero;fill:rgb(100%,100%,100%);fill-opacity:1;" d="M 8.011719 17.644531 L 8.011719 9.664062 L 5.867188 9.664062 L 5.867188 19.542969 L 11.324219 19.542969 L 11.324219 17.644531 Z M 8.011719 17.644531 "/>
<path style=" stroke:none;fill-rule:nonzero;fill:rgb(100%,100%,100%);fill-opacity:1;" d="M 29.59375 19.542969 L 34.695312 19.542969 L 34.695312 17.640625 L 31.75 17.640625 L 31.75 16.402344 L 34.695312 16.402344 L 34.695312 14.570312 L 31.75 14.570312 L 31.75 13.324219 L 34.695312 13.324219 L 34.695312 11.414062 L 29.59375 11.414062 Z M 29.59375 19.542969 "/>
<path style=" stroke:none;fill-rule:nonzero;fill:rgb(100%,100%,100%);fill-opacity:1;" d="M 16.230469 13.324219 L 14.339844 13.324219 L 14.339844 17.632812 L 16.230469 17.632812 Z M 18.375 18.503906 C 18.375 19.078125 17.921875 19.542969 17.355469 19.542969 L 13.214844 19.542969 C 12.648438 19.542969 12.195312 19.078125 12.195312 18.503906 L 12.195312 12.453125 C 12.195312 11.878906 12.648438 11.414062 13.214844 11.414062 L 17.355469 11.414062 C 17.921875 11.414062 18.375 11.878906 18.375 12.453125 Z M 18.375 18.503906 "/>
<path style=" stroke:none;fill-rule:nonzero;fill:rgb(100%,100%,100%);fill-opacity:1;" d="M 26.21875 11.414062 L 26.21875 17.644531 L 24.925781 17.644531 L 24.925781 11.414062 L 23.039062 11.414062 L 23.039062 17.644531 L 21.746094 17.644531 L 21.746094 11.414062 L 19.59375 11.414062 L 19.59375 18.503906 C 19.59375 19.078125 20.054688 19.542969 20.617188 19.542969 L 23.15625 19.542969 C 23.582031 19.542969 23.980469 19.242188 23.980469 18.804688 C 23.980469 19.242188 24.382812 19.542969 24.808594 19.542969 L 27.347656 19.542969 C 27.914062 19.542969 28.367188 19.078125 28.367188 18.503906 L 28.367188 11.414062 Z M 26.21875 11.414062 "/>
<path style=" stroke:none;fill-rule:nonzero;fill:rgb(100%,100%,100%);fill-opacity:1;" d="M 42.230469 16.46875 L 42.214844 16.445312 C 42.207031 16.425781 42.195312 16.410156 42.191406 16.394531 L 42.175781 16.363281 C 41.835938 15.671875 41.074219 15.09375 39.851562 14.59375 L 39.804688 14.578125 C 39.566406 14.480469 38.828125 14.1875 38.746094 13.710938 C 38.722656 13.574219 38.777344 13.367188 38.921875 13.238281 C 39.078125 13.078125 39.3125 12.996094 39.625 12.996094 C 40.125 12.996094 40.691406 13.203125 40.988281 13.328125 C 41.605469 13.589844 42.148438 13.824219 42.15625 13.828125 L 42.210938 13.847656 L 42.210938 12.074219 L 42.191406 12.0625 C 42.179688 12.054688 41.007812 11.304688 39.824219 11.132812 C 39.6875 11.117188 39.550781 11.113281 39.421875 11.113281 C 38.332031 11.113281 37.507812 11.515625 36.972656 12.3125 C 36.519531 12.964844 36.46875 13.996094 36.855469 14.765625 C 37.347656 15.640625 38.140625 16 38.902344 16.355469 C 39.21875 16.5 39.546875 16.648438 39.851562 16.832031 L 39.855469 16.835938 C 40.203125 17.046875 40.375 17.371094 40.304688 17.65625 C 40.226562 17.957031 39.894531 18.15625 39.46875 18.15625 C 39.414062 18.15625 39.355469 18.152344 39.300781 18.140625 L 39.277344 18.140625 C 38.464844 18.027344 36.816406 17.402344 36.800781 17.394531 L 36.746094 17.375 L 36.746094 19.320312 L 36.773438 19.328125 C 36.789062 19.335938 38.382812 19.871094 39.800781 19.871094 C 40.574219 19.871094 41.15625 19.714844 41.535156 19.402344 C 41.542969 19.398438 42.410156 18.6875 42.445312 17.484375 C 42.460938 17.152344 42.382812 16.808594 42.226562 16.46875 "/>
</g>
</svg>
